inDegrees=yes
name=ik_OwnShooting_orientations2.mot
DataType=double
version=3
OpenSimVersion=4.3-2021-08-27-4bc7ad9
endheader
time	pelvis_tilt	pelvis_list	pelvis_rotation	pelvis_tx	pelvis_ty	pelvis_tz	hip_flexion_r	hip_adduction_r	hip_rotation_r	knee_angle_r	knee_angle_r_beta	ankle_angle_r	subtalar_angle_r	mtp_angle_r	hip_flexion_l	hip_adduction_l	hip_rotation_l	knee_angle_l	knee_angle_l_beta	ankle_angle_l	subtalar_angle_l	mtp_angle_l	lumbar_extension	lumbar_bending	lumbar_rotation	arm_flex_r	arm_add_r	arm_rot_r	elbow_flex_r	pro_sup_r	wrist_flex_r	wrist_dev_r	arm_flex_l	arm_add_l	arm_rot_l	elbow_flex_l	pro_sup_l	wrist_flex_l	wrist_dev_l
0.01	0.02300406498910515	0.01204780280068062	57.88521196912184	0	0.9399999999999999	0	44.06872790742167	-10.09801798903058	0	59.79363290716898	1.043595765958928	-5.030160635872845	0	0	44.06872790742167	-10.09801798903058	0	59.79363290716898	1.043595765958928	-5.030160635872845	0	0	-0.03468018740121663	-0.003167650888495898	0.005406553261142643	-0.4377076032735104	-0.07836478096337376	-0.004027449048256014	0.9269756168215649	45.10518336277907	0	0	0	-12.14284572129431	0	76.0130511749996	45.10518336277907	0	0
0.02	-0.1563877763739525	0.0009199788585638361	57.8784205752215	0	0.9399999999999999	0	44.07257373712656	-10.09704209561884	0	59.79447934617801	1.043610539106552	-5.029800613132754	0	0	44.07257373712656	-10.09704209561884	0	59.79447934617801	1.043610539106552	-5.029800613132754	0	0	0.03413297377515083	-0.04744784036437409	0.03305728634215447	0.36708657406052	-1.630709039977971	-0.6635757688311906	1.786155117062831	45.10429199872372	0	0	0	-12.15001795941595	0	76.00886831432874	45.10429199872372	0	0
0.03	-0.2649528752739366	0.02411468137743841	57.88923748432546	0	0.9399999999999999	0	44.07583991411751	-10.09619588071991	0	59.79518957984116	1.043622935022433	-5.029486705521331	0	0	44.07583991411751	-10.09619588071991	0	59.79518957984116	1.043622935022433	-5.029486705521331	0	0	0.001190859890263761	-0.07698237946063062	0.03461770821600429	1.606292247451278	-7.968621796718065	-7.280033201344229	3.397236208052643	45.10352259706062	0	0	0	-12.15606214501575	0	76.00531590208325	45.10352259706062	0	0
0.04	-0.331572292466593	0.007826855557029869	57.90184357257887	0	0.9399999999999999	0	44.08004358456304	-10.09510420970425	0	59.79610470848861	1.04363890703041	-5.029081182415243	0	0	44.08004358456304	-10.09510420970425	0	59.79610470848861	1.04363890703041	-5.029081182415243	0	0	0.04005923000861677	-0.07540634262430077	0.04486984471843104	1.681012648241227	-11.5122813859646	-13.56593866678523	1.773784500294491	45.10253092707224	0	0	0	-12.16384357846028	0	76.00074383820109	45.10253092707224	0	0
0.05	-0.3568133415245092	-0.0286468343626297	57.89185898846056	0	0.9399999999999999	0	44.08546014474103	-10.09368748503802	0	59.79727085949618	1.043659260205068	-5.028555010617972	0	0	44.08546014474103	-10.09368748503802	0	59.79727085949618	1.043659260205068	-5.028555010617972	0	0	0.06111157559652113	-0.02738234033359472	0.03060562911998476	-2.236822398344909	-36.31896457313036	-25.16438335610861	0.03661040350392759	45.10124470914558	0	0	0	-12.17381713018043	0	75.99485258918858	45.10124470914558	0	0
0.06	-0.4280222702285859	-0.02280137540244866	57.86155319113388	0	0.9399999999999999	0	44.09073578011662	-10.09216745086889	0	59.79833020747755	1.043677749315267	-5.027979615598198	0	0	44.09073578011662	-10.09216745086889	0	59.79833020747755	1.043677749315267	-5.027979615598198	0	0	0.1139321837967081	-0.1398110485910556	0.1123876244888323	0.6151179080238501	-0.9330913623209549	-12.46328294313944	9.217663417357505	45.0998890235869	0	0	0	-12.18308496267259	0	75.98911459392012	45.0998890235869	0	0
0.07000000000000001	-0.42528015523119	-0.03084998850059638	57.83517547770526	0	0.9399999999999999	0	44.09989637244069	-10.08971156721573	0	59.80025729321944	1.043711383306431	-5.027064692207499	0	0	44.09989637244069	-10.08971156721573	0	59.80025729321944	1.043711383306431	-5.027064692207499	0	0	0.1492421187805845	-0.1651264114486624	0.1206032811454368	-4.455009492114519	-17.38635909400491	-64.83177648862574	12.85553574134565	45.09766772083999	0	0	0	-12.19972386754392	0	75.97915118884985	45.09766772083999	0	0
0.08	-0.4468941397814132	-0.0218535620410615	57.8104675119514	0	0.9399999999999999	0	44.10686445485307	-10.08795998035838	0	59.80177280522479	1.043737833980778	-5.026422456489671	0	0	44.10686445485307	-10.08795998035838	0	59.80177280522479	1.043737833980778	-5.026422456489671	0	0	0.1422492978152093	-0.1991639941128776	0.1124031210743726	-10.70833200326701	-3.990378589570807	-59.62069402793399	0.01071366827136692	45.09606200349918	0	0	0	-12.21271832381293	0	75.97157245622046	45.09606200349918	0	0
0.09	-0.4800892718271454	-0.02928917041493278	57.79136755173323	0	0.9399999999999999	0	44.24449719968067	-10.05301143868656	0	59.83101060626363	1.044248129874949	-5.013767286342564	0	0	44.24449719968067	-10.05301143868656	0	59.83101060626363	1.044248129874949	-5.013767286342564	0	0	0.1504870971285949	-0.2349782873250298	0.1207856525648326	20.92418339786371	48.67745233296763	-53.35312202886026	149.9822710293452	45.06387511869585	0	0	0	-12.46483733145737	0	75.82187815497164	45.06387511869585	0	0
0.1	-0.5057708672664265	-0.03044454346369799	57.77686939390839	0	0.9399999999999999	0	44.39415673449489	-10.02471081496999	0	59.85906318713737	1.044737739774878	-5.004992413594287	0	0	44.39415673449489	-10.02471081496999	0	59.85906318713737	1.044737739774878	-5.004992413594287	0	0	0.1489727147918225	-0.2548681897209933	0.08276184697506084	7.175391153356445	-45.23927954605335	-10.27602459788567	16.07913844162268	45.03505456346478	0	0	0	-12.74204863765443	0	75.65910366200855	45.03505456346478	0	0
0.11	-0.4763892514231593	-0.03138707170964798	57.72325232406912	0	0.9399999999999999	0	44.39431702401534	-10.0246879292562	0	59.85909243654741	1.044738250273387	-5.004986379848106	0	0	44.39431702401534	-10.0246879292562	0	59.85909243654741	1.044738250273387	-5.004986379848106	0	0	0.1186726431956843	-0.2333842682060677	0.1410994591240494	7.061196277342368	-44.58151997428291	-10.17422674974808	15.46838104384964	45.03502889146435	0	0	0	-12.7423542440555	0	75.6589293265519	45.03502889146435	0	0
0.12	-0.4713723896473533	-0.009415033186195321	57.7246943053275	0	0.9399999999999999	0	44.39653650629585	-10.02443634173855	0	59.85957647045677	1.044746698258797	-5.004922968359157	0	0	44.39653650629585	-10.02443634173855	0	59.85957647045677	1.044746698258797	-5.004922968359157	0	0	0.06609736561165923	-0.2635740225302965	0.07258680938786048	5.241353663021347	-40.36520687147136	-13.49852008562292	2.485774495182145	45.03473473348824	0	0	0	-12.74713733000871	0	75.65651536310354	45.03473473348824	0	0
0.13	-0.4860379631880875	-0.01099223585217281	57.74381261733746	0	0.9399999999999999	0	44.51061345168295	-10.01286818269305	0	59.88573250638155	1.045203207204954	-5.002123844012544	0	0	44.51061345168295	-10.01286818269305	0	59.88573250638155	1.045203207204954	-5.002123844012544	0	0	0.08432217334551956	-0.294768631179383	0.0363486244760195	2.222013668394759	-13.04129212100962	-12.11882681077789	109.9377255433438	45.0208058485444	0	0	0	-13.00119533505691	0	75.53244264583164	45.0208058485444	0	0
0.14	-0.4622750679891454	0.008433244973778488	57.72927382107038	0	0.9399999999999999	0	44.5153758854618	-10.01251104874742	0	59.8867301558951	1.045220619473747	-5.002050453146279	0	0	44.5153758854618	-10.01251104874742	0	59.8867301558951	1.045220619473747	-5.002050453146279	0	0	0.03540802100225383	-0.274594281041815	0.04538710264064018	-5.49776306096091	-21.08851982888785	-63.93329478160771	52.6452143724903	45.02033043247402	0	0	0	-13.0121693274472	0	75.52726291976865	45.02033043247402	0	0
0.15	-0.3477426062236068	0.05880654635506426	57.74747124767799	0	0.9399999999999999	0	44.53151330313833	-10.01142514261038	0	59.89043359802437	1.045285256732559	-5.001831923063049	0	0	44.53151330313833	-10.01142514261038	0	59.89043359802437	1.045285256732559	-5.001831923063049	0	0	-0.02849066374631745	-0.1948971123507711	0.03920144316961273	-4.618308535380986	-47.28919751705436	-39.16560057862313	14.14750212860876	45.01885681518583	0	0	0	-13.05154873577284	0	75.50971153312074	45.01885681518583	0	0
0.16	-0.3242070948416501	0.01930119783634532	57.73805753015158	0	0.9399999999999999	0	44.53689539818485	-10.0110882270229	0	59.8916528619683	1.045306536902832	-5.00176602040519	0	0	44.53689539818485	-10.0110882270229	0	59.8916528619683	1.045306536902832	-5.00176602040519	0	0	0.03718913204363181	-0.1531245633841253	0.03244575005553122	-5.841834626023762	-16.64013355547852	-76.89048204592073	48.15289090734979	45.01839015240662	0	0	0	-13.06485783513427	0	75.50385785743244	45.01839015240662	0	0
0.17	-0.2905919128946243	0.02349445957989069	57.72684747016199	0	0.9399999999999999	0	44.5424283088385	-10.01076136808589	0	59.89293621631031	1.04532893566157	-5.001703087523189	0	0	44.5424283088385	-10.01076136808589	0	59.89293621631031	1.04532893566157	-5.001703087523189	0	0	0.04275114658306967	-0.1212492072917544	0.06038269664200876	-10.04491131903692	-28.12916980403652	-71.40373889733252	43.16367196524381	45.01793155947072	0	0	0	-13.07883400864626	0	75.49784015367533	45.01793155947072	0	0
0.18	-0.2895555904758516	0.02653207036783499	57.68562307072244	0	0.9399999999999999	0	44.54420306193352	-10.01065229835465	0	59.8933348452593	1.045335893049223	-5.001681910045944	0	0	44.54420306193352	-10.01065229835465	0	59.8933348452593	1.045335893049223	-5.001681910045944	0	0	0.1172273191597048	-0.1345017261726195	0.1887104793706562	-11.41896912473746	-32.64169022096451	-68.96363151957731	36.56379022503091	45.01777969173803	0	0	0	-13.08323777884518	0	75.49590989635507	45.01777969173803	0	0
0.19	-0.3137387265536093	0.0388019478488958	57.68417626080808	0	0.9399999999999999	0	44.6057783010176	-10.00681141649822	0	59.9071416511711	1.045576867271568	-5.000944914111074	0	0	44.6057783010176	-10.00681141649822	0	59.9071416511711	1.045576867271568	-5.000944914111074	0	0	0.2113608356965639	-0.1520005354878572	0.1939607522025309	-37.97606736585689	-31.3773629604919	-5.577259283942058	0.002856862786759478	45.01240989701948	0	0	0	-13.23303983895997	0	75.42893942835546	45.01240989701948	0	0
0.2	-0.3196257064215716	0.04109832817680745	57.68037580190165	0	0.9399999999999999	0	44.61086065774182	-10.00658315543656	0	59.90828743127078	1.045596864906811	-5.000906240729101	0	0	44.61086065774182	-10.00658315543656	0	59.90828743127078	1.045596864906811	-5.000906240729101	0	0	0.2660731535642665	-0.1255545632588697	0.2322095900166507	-66.33506457382022	-2.732076458552104	50.53372648692063	0.002191433273012343	45.01206145180036	0	0	0	-13.24647605483404	0	75.42341175976307	45.01206145180036	0	0
0.21	-0.3191463496762595	0.04332659494218724	57.70441479195065	0	0.9399999999999999	0	44.65433057056848	-10.00460750752921	0	59.91813162461546	1.045768678492879	-5.00057417730812	0	0	44.65433057056848	-10.00460750752921	0	59.91813162461546	1.045768678492879	-5.00057417730812	0	0	0.2701401821805304	-0.1245961306733237	0.09233365013691239	-55.79112527703663	-15.58868946829284	-41.57604562928728	0.002190641212728077	45.00903780480855	0	0	0	-13.35975040553202	0	75.37613305386489	45.00903780480855	0	0
